<svg width="118" height="36" viewBox="0 0 118 36" fill="none" xmlns="http://www.w3.org/2000/svg">
<path d="M8.496 27.288C7.504 27.288 6.552 27.128 5.64 26.808C4.744 26.472 3.952 25.976 3.264 25.32C2.592 24.648 2.056 23.816 1.656 22.824C1.256 21.816 1.056 20.648 1.056 19.32C1.056 18.008 1.264 16.848 1.68 15.84C2.096 14.816 2.648 13.96 3.336 13.272C4.04 12.568 4.84 12.032 5.736 11.664C6.648 11.296 7.6 11.112 8.592 11.112C9.632 11.112 10.56 11.32 11.376 11.736C12.192 12.136 12.88 12.616 13.44 13.176L11.28 15.816C10.896 15.48 10.496 15.208 10.08 15C9.68 14.776 9.216 14.664 8.688 14.664C8.224 14.664 7.784 14.768 7.368 14.976C6.968 15.184 6.608 15.48 6.288 15.864C5.984 16.248 5.736 16.72 5.544 17.28C5.368 17.84 5.28 18.472 5.28 19.176C5.28 20.648 5.584 21.776 6.192 22.56C6.816 23.344 7.632 23.736 8.64 23.736C9.248 23.736 9.784 23.608 10.248 23.352C10.728 23.08 11.136 22.76 11.472 22.392L13.632 24.984C12.96 25.752 12.184 26.328 11.304 26.712C10.44 27.096 9.504 27.288 8.496 27.288ZM21.4056 27.288C20.3176 27.288 19.3256 27.104 18.4296 26.736C17.5496 26.368 16.7896 25.84 16.1496 25.152C15.5256 24.448 15.0376 23.592 14.6856 22.584C14.3336 21.56 14.1576 20.408 14.1576 19.128C14.1576 17.848 14.3336 16.712 14.6856 15.72C15.0376 14.712 15.5256 13.872 16.1496 13.2C16.7896 12.512 17.5496 11.992 18.4296 11.64C19.3256 11.288 20.3176 11.112 21.4056 11.112C22.4776 11.112 23.4616 11.288 24.3576 11.64C25.2536 11.992 26.0136 12.512 26.6376 13.2C27.2776 13.888 27.7736 14.728 28.1256 15.72C28.4776 16.712 28.6536 17.848 28.6536 19.128C28.6536 20.408 28.4776 21.56 28.1256 22.584C27.7736 23.592 27.2776 24.448 26.6376 25.152C26.0136 25.84 25.2536 26.368 24.3576 26.736C23.4616 27.104 22.4776 27.288 21.4056 27.288ZM21.4056 23.736C22.3496 23.736 23.0856 23.328 23.6136 22.512C24.1576 21.68 24.4296 20.552 24.4296 19.128C24.4296 17.704 24.1576 16.608 23.6136 15.84C23.0856 15.056 22.3496 14.664 21.4056 14.664C20.4616 14.664 19.7176 15.056 19.1736 15.84C18.6456 16.608 18.3816 17.704 18.3816 19.128C18.3816 20.552 18.6456 21.68 19.1736 22.512C19.7176 23.328 20.4616 23.736 21.4056 23.736ZM33.8524 27L29.2444 11.4H33.6124L35.2444 18.216C35.4684 19.048 35.6604 19.872 35.8204 20.688C35.9804 21.488 36.1724 22.312 36.3964 23.16H36.4924C36.7164 22.312 36.9084 21.488 37.0684 20.688C37.2444 19.872 37.4364 19.048 37.6444 18.216L39.2284 11.4H43.4524L38.8444 27H33.8524ZM44.9468 27V11.4H49.0748V27H44.9468ZM52.5405 27V11.4H57.1485C58.3325 11.4 59.4125 11.544 60.3885 11.832C61.3805 12.12 62.2285 12.576 62.9325 13.2C63.6365 13.824 64.1805 14.624 64.5645 15.6C64.9645 16.576 65.1645 17.752 65.1645 19.128C65.1645 20.504 64.9725 21.688 64.5885 22.68C64.2045 23.672 63.6605 24.488 62.9565 25.128C62.2685 25.768 61.4445 26.24 60.4845 26.544C59.5405 26.848 58.5085 27 57.3885 27H52.5405ZM56.6685 23.688H56.9085C57.4685 23.688 57.9965 23.624 58.4925 23.496C58.9885 23.352 59.4125 23.112 59.7645 22.776C60.1325 22.44 60.4205 21.976 60.6285 21.384C60.8365 20.792 60.9405 20.04 60.9405 19.128C60.9405 18.216 60.8365 17.472 60.6285 16.896C60.4205 16.32 60.1325 15.872 59.7645 15.552C59.4125 15.232 58.9885 15.016 58.4925 14.904C57.9965 14.776 57.4685 14.712 56.9085 14.712H56.6685V23.688Z" fill="#400082"/>
<path d="M97.5 24.49L103.5 18.48L107.5 22.48L116 12.92L114.59 11.51L107.5 19.48L103.5 15.48L96 22.99L97.5 24.49Z" fill="#00BDAA"/>
<path d="M67.584 27V23.688H70.848V15.816H67.968V13.272C68.832 13.096 69.568 12.896 70.176 12.672C70.784 12.448 71.376 12.152 71.952 11.784H74.976V23.688H77.712V27H67.584ZM85.1529 18.504C85.5209 18.504 85.8729 18.408 86.2089 18.216C86.5609 18.008 86.8569 17.672 87.0969 17.208C87.0169 16.68 86.8969 16.248 86.7369 15.912C86.5929 15.56 86.4329 15.288 86.2569 15.096C86.0809 14.888 85.8889 14.752 85.6809 14.688C85.4889 14.608 85.2969 14.568 85.1049 14.568C84.6729 14.568 84.2889 14.72 83.9529 15.024C83.6329 15.328 83.4729 15.88 83.4729 16.68C83.4729 17.048 83.5209 17.352 83.6169 17.592C83.7129 17.816 83.8329 18 83.9769 18.144C84.1369 18.272 84.3129 18.368 84.5049 18.432C84.7129 18.48 84.9289 18.504 85.1529 18.504ZM84.6729 27.288C83.5849 27.288 82.6489 27.096 81.8649 26.712C81.0809 26.328 80.4329 25.88 79.9209 25.368L82.0809 22.92C82.3209 23.192 82.6569 23.44 83.0889 23.664C83.5209 23.872 83.9529 23.976 84.3849 23.976C84.7689 23.976 85.1209 23.912 85.4409 23.784C85.7609 23.64 86.0409 23.408 86.2809 23.088C86.5369 22.752 86.7449 22.328 86.9049 21.816C87.0649 21.288 87.1609 20.64 87.1929 19.872C87.0009 20.112 86.7849 20.328 86.5449 20.52C86.3049 20.712 86.0489 20.872 85.7769 21C85.5209 21.128 85.2649 21.224 85.0089 21.288C84.7689 21.352 84.5449 21.384 84.3369 21.384C83.6809 21.384 83.0729 21.296 82.5129 21.12C81.9529 20.928 81.4649 20.64 81.0489 20.256C80.6489 19.872 80.3289 19.384 80.0889 18.792C79.8489 18.2 79.7289 17.496 79.7289 16.68C79.7289 15.864 79.8649 15.136 80.1369 14.496C80.4249 13.856 80.8089 13.312 81.2889 12.864C81.7689 12.416 82.3289 12.08 82.9689 11.856C83.6089 11.616 84.2889 11.496 85.0089 11.496C85.7449 11.496 86.4649 11.64 87.1689 11.928C87.8889 12.2 88.5289 12.64 89.0889 13.248C89.6489 13.856 90.0969 14.648 90.4329 15.624C90.7849 16.584 90.9609 17.752 90.9609 19.128C90.9609 20.504 90.7849 21.704 90.4329 22.728C90.0809 23.752 89.6169 24.6 89.0409 25.272C88.4649 25.944 87.7929 26.448 87.0249 26.784C86.2729 27.12 85.4889 27.288 84.6729 27.288Z" fill="#FE346E"/>
</svg>
